/* XPM */
static char *result[] = {
/* columns rows colors chars-per-pixel */
"45 45 198 2 ",
"   c black",
".  c #010100",
"X  c #020200",
"o  c #040300",
"O  c #040400",
"+  c #050500",
"@  c #060600",
"#  c #090900",
"$  c #0A0A00",
"%  c #0B0B00",
"&  c #0C0C00",
"*  c #0D0D00",
"=  c #0F0E00",
"-  c #0F0F00",
";  c #101000",
":  c #111100",
">  c #121200",
",  c #131300",
"<  c #141400",
"1  c #151400",
"2  c #151500",
"3  c #161600",
"4  c #181800",
"5  c #191900",
"6  c #1A1A00",
"7  c #1B1A00",
"8  c #1B1B00",
"9  c #1F1E00",
"0  c #201F00",
"q  c #202000",
"w  c #212100",
"e  c #222100",
"r  c #222200",
"t  c #232300",
"y  c #242400",
"u  c #252500",
"i  c #292800",
"p  c #292900",
"a  c #2A2A00",
"s  c #2B2B00",
"d  c #2C2C00",
"f  c #2E2E00",
"g  c #302F00",
"h  c #323200",
"j  c #333200",
"k  c #343300",
"l  c #363500",
"z  c #373600",
"x  c #373700",
"c  c #383800",
"v  c #393800",
"b  c #393900",
"n  c #3A3A00",
"m  c #3E3D00",
"M  c #3F3E00",
"N  c #3F3F00",
"B  c #404000",
"V  c #414000",
"C  c #414100",
"Z  c #444300",
"A  c #454400",
"S  c #454500",
"D  c #464500",
"F  c #464600",
"G  c #474700",
"H  c #494800",
"J  c #4A4900",
"K  c #4B4B00",
"L  c #4C4B00",
"P  c #4C4C00",
"I  c #4E4D00",
"U  c #525100",
"Y  c #535200",
"T  c #535300",
"R  c #565600",
"E  c #575600",
"W  c #595800",
"Q  c #5A5900",
"!  c #5C5B00",
"~  c #5D5C00",
"^  c #5F5E00",
"/  c #626100",
"(  c #646300",
")  c #656400",
"_  c #656500",
"`  c #666500",
"'  c #676600",
"]  c #696800",
"[  c #6B6A00",
"{  c #6D6D00",
"}  c #6F6E00",
"|  c #706F00",
" . c #717000",
".. c #727100",
"X. c #757400",
"o. c #7A7900",
"O. c #7A7A00",
"+. c #7D7C00",
"@. c #807F00",
"#. c #848300",
"$. c #858400",
"%. c #868400",
"&. c #898700",
"*. c #898800",
"=. c #8C8B00",
"-. c #8D8C00",
";. c #929100",
":. c #939200",
">. c #949300",
",. c #959300",
"<. c #959400",
"1. c #969500",
"2. c #989700",
"3. c #9A9800",
"4. c #9A9900",
"5. c #9C9A00",
"6. c #9D9C00",
"7. c #A09F00",
"8. c #A19F00",
"9. c #A3A100",
"0. c #A3A200",
"q. c #A5A300",
"w. c #A7A600",
"e. c #A8A700",
"r. c #A9A800",
"t. c #AAA800",
"y. c #ABAA00",
"u. c #ACAA00",
"i. c #ADAB00",
"p. c #AFAE00",
"a. c #B1AF00",
"s. c #B1B000",
"d. c #B2B000",
"f. c #B2B100",
"g. c #B3B100",
"h. c #B4B200",
"j. c #B4B300",
"k. c #B6B400",
"l. c #B6B500",
"z. c #B8B700",
"x. c #BAB800",
"c. c #BCBB00",
"v. c #BDBC00",
"b. c #C0BE00",
"n. c #C0BF00",
"m. c #C1C000",
"M. c #C4C200",
"N. c #C6C500",
"B. c #C7C500",
"V. c #C8C700",
"C. c #C9C700",
"Z. c #CBC900",
"A. c #CCCB00",
"S. c #CDCB00",
"D. c #D0CE00",
"F. c #D2D000",
"G. c #D3D100",
"H. c #D4D300",
"J. c #D5D300",
"K. c #D7D600",
"L. c #D8D600",
"P. c #DAD800",
"I. c #DAD900",
"U. c #DBD900",
"Y. c #DBDA00",
"T. c #DCDB00",
"R. c #DDDB00",
"E. c #DEDC00",
"W. c #DFDD00",
"Q. c #DFDE00",
"!. c #E2E000",
"~. c #E2E100",
"^. c #E3E100",
"/. c #E4E200",
"(. c #E5E300",
"). c #E6E400",
"_. c #E7E500",
"`. c #E8E600",
"'. c #E9E700",
"]. c #EAE800",
"[. c #EBE900",
"{. c #ECEA00",
"}. c #EDEB00",
"|. c #EEEC00",
" X c #EFED00",
".X c #EFEE00",
"XX c #F0EE00",
"oX c #F1EF00",
"OX c #F2F000",
"+X c #F3F000",
"@X c #F3F100",
"#X c #F4F100",
"$X c #F4F200",
"%X c #F5F200",
"&X c #F5F300",
"*X c #F6F400",
"=X c #F7F500",
"-X c None",
/* pixels */
"-X-X-X-X-X-X-X-X-X-X-X-X-X-X-X-X-X-X-X-X-X-X-X-X-X-X-X-X-X-X-X-X-X-X-X-X-X-X-X-X-X-X-X-X-X",
"-X-X-X-X-X-X-X-X-X-X-X-X-X-X-X-X-X-X-X-X-X-X-X-X-X-X-X-X-X-X-X-X-X-X-X-X-X-X-X-X-X-X-X-X-X",
"-X-X-X-X-X-X-X-X-X-X-X-X-X-X-X-X-X-X-X-X> 0 h m S D F V z u 3 $ -X-X-X-X-X-X-X-X-X-X-X-X-X",
"-X-X-X-X-X-X-X-X-X-X-X-X-X-X-X-X5 M ` *.r.m.J.E.!.^.~.W.L.V.d.>. .L y -X-X-X-X-X-X-X-X-X-X",
"-X-X-X-X-X-X-X-X-X-X-X-X-X% j } p.U.|.$X&X&X$X@X@X@X@X@X$X$X&X&XoX^.n.#.A 2 -X-X-X-X-X-X-X",
"-X-X-X-X-X-X-X-X-X-X-X$ Z ;.F.XX&X#XOXOXOXOXOXOXOXOXOXOXOXOXOXOXOX@X&X@XQ.t.~ 4 -X-X-X-X-X",
"-X-X-X-X-X-X-X-X-X-Xg &.P.$X$XOXOXOXOXOXOXOXOXOXOXOXOXOXOXOXOXOXOXOXOXOX@X&X`.e.H % -X-X-X",
"-X-X-X-X-X-X-X-X* ^ C.OX$XOXOXOXOXOXOXOXOXOXOXOXOXOXOXOXOXOXOXOXOXOXOXOXOXOX@X&XE.$.e -X-X",
"-X-X-X-X-X-X-X8 $.(.&XOXOXOXOXOXOXOXOXOXOXOXOXOXOXOXOXOXOXOXOXOXOXOXOXOXOXOXOXOX$XOX5.< -X",
"-X-X-X-X-X-Xw 4. X@XOXOXOXOXOXOXOXOXOXOXOXOXOXOXOXOXOXOXOXOXOXOXOXOXOXOXOXOXOX@X$XS.! $ -X",
"-X-X-X-X-Xq 8.oX@XOXOXOXOXOXOXOXOXOXOXOXOXOXOXOXOX@X@XOXOXOXOXOXOXOXOXOXOXOX@X Xt.v -X-X-X",
"-X-X-X-X< :.oX@XOXOXOXOXOXOXOXOXOXOXOXOXOXOXOX@X+X_./.oX@XOXOXOXOXOXOXOXOX$X^.#.9 -X-X-X-X",
"-X-X-X+ ..{.@XOXOXOXOXOXOXOXOXOXOXOXOXOXOXOX@X'.,.G M O.Y.@XOXOXOXOXOX@X$XA.! % -X-X-X-X-X",
"-X-X-XB L.$XOXOXOXOXOXOXOXOXOXOXOXOXOXOXOXOX$X0.-     X X.XXOXOXOXOX@XXXu.b -X-X-X-X-X-X-X",
"-X-X, 9.%XOXOXOXOXOXOXOXOXOXOXOXOXOXOXOXOXOX$X$.        U [.@XOXOX$X^.#.0 -X-X-X-X-X-X-X-X",
"-X-XI (.@XOXOXOXOXOXOXOXOXOXOXOXOXOXOXOXOXOX$XC.n @ O r w.@XOXOX$XD.~ % -X-X-X-X-X-X-X-X-X",
"-X% 3.&XOXOXOXOXOXOXOXOXOXOXOXOXOXOXOXOXOXOXOXOXG.6.<.M..XOX@XoXa.m . -X-X-X-X-X-X-X-X-X-X",
"-Xf G.$XOXOXOXOXOXOXOXOXOXOXOXOXOXOXOXOXOXOXOXOX$X&X&X$XOX$X).=.t -X-X-X-X-X-X-X-X-X-X-X-X",
"-X! }.@XOXOXOXOXOXOXOXOXOXOXOXOXOXOXOXOXOXOXOXOXOXOXOXOX%XF./ = -X-X-X-X-X-X-X-X-X-X-X-X-X",
"O %.$XOXOXOXOXOXOXOXOXOXOXOXOXOXOXOXOXOXOXOXOXOXOXOX@XXXf.C X -X-X-X-X-X-X-X-X-X-X-X-X-X-X",
"* q.*XOXOXOXOXOXOXOXOXOXOXOXOXOXOXOXOXOXOXOXOXOXOX$X_.=.r -X-X-X-X-X-X-X-X-X-X-X-X-X-X-X-X",
", l.&XOXOXOXOXOXOXOXOXOXOXOXOXOXOXOXOXOXOXOXOXOXOXD.) ; -X-X-X-X-X-X-X-X-X-X-X-X-X-X-X-X-X",
"3 c.&XOXOXOXOXOXOXOXOXOXOXOXOXOXOXOXOXOXOXOXOX@X_.~   -X-X-X-X-X-X-X-X-X-X-X-X-X-X-X-X-X-X",
"< z.&XOXOXOXOXOXOXOXOXOXOXOXOXOXOXOXOXOXOXOXOXOXoXg.k -X-X-X-X-X-X-X-X-X-X-X-X-X-X-X-X-X-X",
"= r.*XOXOXOXOXOXOXOXOXOXOXOXOXOXOXOXOXOXOXOXOXOXOX$Xv.m -X-X-X-X-X-X-X-X-X-X-X-X-X-X-X-X-X",
"@ -.&XOXOXOXOXOXOXOXOXOXOXOXOXOXOXOXOXOXOXOXOXOXOXOX$XZ.J . -X-X-X-X-X-X-X-X-X-X-X-X-X-X-X",
"  )  XOXOXOXOXOXOXOXOXOXOXOXOXOXOXOXOXOXOXOXOXOXOXOXOX$XF.W @ -X-X-X-X-X-X-X-X-X-X-X-X-X-X",
"-Xx I.$XOXOXOXOXOXOXOXOXOXOXOXOXOXOXOXOXOXOXOXOXOXOXOXOX$XT.( # -X-X-X-X-X-X-X-X-X-X-X-X-X",
"-X: w.&XOXOXOXOXOXOXOXOXOXOXOXOXOXOXOXOXOXOXOXOXOXOXOXOXOX$X!.X.- -X-X-X-X-X-X-X-X-X-X-X-X",
"-X-X! ].@XOXOXOXOXOXOXOXOXOXOXOXOXOXOXOXOXOXOXOXOXOXOXOXOXOX$X`.@.1 -X-X-X-X-X-X-X-X-X-X-X",
"-X-X8 j.&XOXOXOXOXOXOXOXOXOXOXOXOXOXOXOXOXOXOXOXOXOXOXOXOXOXOX@X{.=.5 -X-X-X-X-X-X-X-X-X-X",
"-X-X-XY ~.@XOXOXOXOXOXOXOXOXOXOXOXOXOXOXOXOXOXOXOXOXOXOXOXOXOXOX@X|.2.t -X-X-X-X-X-X-X-X-X",
"-X-X-X& *.oX@XOXOXOXOXOXOXOXOXOXOXOXOXOXOXOXOXOXOXOXOXOXOXOXOXOXOX@XoXw.a -X-X-X-X-X-X-X-X",
"-X-X-X-Xw y.$XOXOXOXOXOXOXOXOXOXOXOXOXOXOXOXOXOXOXOXOXOXOXOXOXOXOXOX@X@Xh.l -X-X-X-X-X-X-X",
"-X-X-X-X-Xg x.$XOXOXOXOXOXOXOXOXOXOXOXOXOXOXOXOXOXOXOXOXOXOXOXOXOXOXOXOX$Xb.N -X-X-X-X-X-X",
"-X-X-X-X-X-Xk k.@X@XOXOXOXOXOXOXOXOXOXOXOXOXOXOXOXOXOXOXOXOXOXOXOXOXOXOXOX$XZ.P X -X-X-X-X",
"-X-X-X-X-X-X-Xs 7.|.$XOXOXOXOXOXOXOXOXOXOXOXOXOXOXOXOXOXOXOXOXOXOXOXOXOXOXOX$XH.Q # -X-X-X",
"-X-X-X-X-X-X-X-X7 +.R.&X@XOXOXOXOXOXOXOXOXOXOXOXOXOXOXOXOXOXOXOXOXOXOXOXOXOXOX=XG.b   -X-X",
"-X-X-X-X-X-X-X-X-X# J i.'.&X@XOXOXOXOXOXOXOXOXOXOXOXOXOXOXOXOXOXOXOXOXOX@X&XoXB.] 4 -X-X-X",
"-X-X-X-X-X-X-X-X-X-X-X6 ^ s.(.&X$X@XOXOXOXOXOXOXOXOXOXOXOXOXOXOXOXOX$X&X}.N.o.d -X-X-X-X-X",
"-X-X-X-X-X-X-X-X-X-X-X-X-X6 T 1.Z.'.@X&X$X@X@X@XOXOXOXOX@X@X$X&X&X|.K.r.] p o -X-X-X-X-X-X",
"-X-X-X-X-X-X-X-X-X-X-X-X-X-X-X& s R #.u.C.Q.'.}..XXXXX|.[./.F.l.;._ c < -X-X-X-X-X-X-X-X-X",
"-X-X-X-X-X-X-X-X-X-X-X-X-X-X-X-X-X-X-X< i A E ( [ | { ' ! K j 5 # -X-X-X-X-X-X-X-X-X-X-X-X",
"-X-X-X-X-X-X-X-X-X-X-X-X-X-X-X-X-X-X-X-X-X-X-X-X-X-X-X-X-X-X-X-X-X-X-X-X-X-X-X-X-X-X-X-X-X",
"-X-X-X-X-X-X-X-X-X-X-X-X-X-X-X-X-X-X-X-X-X-X-X-X-X-X-X-X-X-X-X-X-X-X-X-X-X-X-X-X-X-X-X-X-X"
};
