/* XPM */
static char *result[] = {
/* columns rows colors chars-per-pixel */
"45 46 116 2 ",
"   c #010101",
".  c #0A0505",
"X  c #0D0806",
"o  c #070708",
"O  c #070909",
"+  c #0C0B0A",
"@  c #1C0504",
"#  c #100806",
"$  c #120D0C",
"%  c #1A0B0A",
"&  c #16100E",
"*  c #1B110E",
"=  c #0F1010",
"-  c #141312",
";  c #1B1514",
":  c #191817",
">  c #1C1B1A",
",  c #2A0707",
"<  c #230B0B",
"1  c #20130F",
"2  c #241513",
"3  c #271915",
"4  c #281A16",
"5  c #221B1A",
"6  c #2A1E1C",
"7  c #3B1E1D",
"8  c #23201F",
"9  c #2A201F",
"0  c #36211C",
"q  c #3C261E",
"w  c #252322",
"e  c #2B2523",
"r  c #2B2827",
"t  c #2D2A28",
"y  c #312523",
"u  c #392725",
"i  c #332B27",
"p  c #3B2823",
"a  c #342B2A",
"s  c #3B2D2B",
"d  c #3D302E",
"f  c #4A1816",
"g  c #41271E",
"h  c #492524",
"j  c #452A21",
"k  c #432D2B",
"l  c #482D2C",
"z  c #572B24",
"x  c #41312E",
"c  c #4C3229",
"v  c #533329",
"b  c #58302F",
"n  c #433533",
"m  c #4B3534",
"M  c #473A37",
"N  c #4B3836",
"B  c #463C3A",
"V  c #4D3C3B",
"C  c #513735",
"Z  c #5B3433",
"A  c #523935",
"S  c #5F3C34",
"D  c #553E3C",
"F  c #5C3D3B",
"G  c #63302E",
"H  c #603432",
"J  c #653F3D",
"K  c #4A413F",
"L  c #55413E",
"P  c #5B413D",
"I  c #64463E",
"U  c #554341",
"Y  c #5A4442",
"T  c #554946",
"R  c #594844",
"E  c #5F4B48",
"W  c #624742",
"Q  c #634946",
"!  c #6E4841",
"~  c #644C4A",
"^  c #6C4C4A",
"/  c #724745",
"(  c #7A4442",
")  c #754B42",
"_  c #744D4A",
"`  c #65514F",
"'  c #6C504D",
"]  c #73524D",
"[  c #7C524C",
"{  c #6A5553",
"}  c #6E5957",
"|  c #6E5A58",
" . c #745552",
".. c #7C5452",
"X. c #7C5955",
"o. c #755A58",
"O. c #7D5D5A",
"+. c #814E49",
"@. c #83544C",
"#. c #855650",
"$. c #865955",
"%. c #8A5B57",
"&. c #865E5B",
"*. c #8C5D5A",
"=. c #905F5C",
"-. c #84605D",
";. c #8B605D",
":. c #91615E",
">. c #8C6562",
",. c #8D6966",
"<. c #956461",
"1. c #9B6764",
"2. c #926966",
"3. c #9C6966",
"4. c #9E6B69",
"5. c #A36C69",
/* pixels */
"                                                                                          ",
"                                                                                          ",
"                                                                                          ",
"                                                                                          ",
"                                                                                          ",
"                                                              + + + + +                   ",
"          +   X - 2 *                                             $ 2 ; +   o             ",
"          o X a Q _ A :                                         @ h / ^ n $               ",
"            > Y >.3.^ e O                                       % H 1.,.E > o             ",
"            6 _ 5.1.^ e $                                       : D <.>.~ 5               ",
"            6 [ 5.3./ 7 #   . + + O + o o o o o o X o + - - o o : L :.>.E 5 o             ",
"            4 _ 5.3.( f %     + $ $ + # + X $ # + + + $ + +     : F ;.&.U ; o             ",
"            ; _ 5.1.+.z <   = r C F F F P J F F F P J J m e +   : D ;.&.P - X             ",
"        O o * _ 5.3.@.S 3 O : M X.<.;.;.*.&.*.*.%.%.:.:.X.L - o : F :.-.U : o             ",
"        + o * _ 5.1.#.S 3   $ e U ~ R D D V A G G A I I I A * o > D :.-.U ; o             ",
"        + + - ^ 3.1.$.F 3     & w w 5 : - : ; , , ; 9 g z 0 #   - F ;.*.U ; +             ",
"        $ - & Y ,.<.&.Q 6     o O + + o + o o X X o + # $ +   . < Z =.&.U ; +             ",
"            - K O.<.*.E e                                     . % Z =.&.U ; +             ",
"          o & N O.<.*.~ 6                                       $ C ;.&.U ; +             ",
"          o $ x ] <.>.' e o                                 o X + N :.-.U ; +             ",
"          + $ g ) :.2.| e o                                 o   + A :.&.P ; +             ",
"          O $ g ) :.2.} a X                                   o - D :.$.A $ o             ",
"            # g ) :.2.X.d +                 .                 o : D :.@.v X               ",
"            # g ) :.4.;.N +   o - : 5 w e p g y r r w > 5 :   o : D :.@.v X               ",
"            X q ! =.5.<.C +   $ a B B T T I I R T T T U V a + o : L =.@.v X               ",
"            o 8 T *.5.:.m +   - B ` { | } ' ` { | | O.*. .V -   : D :.@.v X               ",
"              > D *.4.&.k +   $ y n n B n s s n n n V A m e + o > P ;.@.v X               ",
"            o : V *.2.o.s o     + + & + + + + + + & $ - # +   + 8 Y :.@.v X               ",
"              - m &.2.} i o       o o   o o o o o o O O + o   + w Q ;.@.v X               ",
"            o + n *.2.o.y                                     o r E :.@.c X               ",
"              + s *.4.*.s                                       r ~ :.] x X               ",
"              o s *.5.=.l .                                   o i ^ :.' a o               ",
"                u *.5.<.b @                                   & c ] :.~ r o               ",
"                e ..4.:.Z < .     . .   o   O X # # X X O .   * c [ :.~ r o               ",
"                5 ` ,.<.F ; X   = * , 2 8 w i c v v v v s 8 O = d ] :.^ r                 ",
"            o   5 ` ,.<.D : o + y C H W Q ^ ' [ #.@.@.[ I d $ & d ] :.~ r o               ",
"            +   5 ~ >.:.D : o & N ' $.*.*.*.*.&.=.%.=.*./ j & % c @.:.~ r                 ",
"            o   ; P ;.1.Y > o o 5 u k k k l l k k k k p 0 1   * v @.:.Q 8 o               ",
"                % j / [ N - o     o o     o   X X o o o o     * j / [ V -                 ",
"                . $ 4 6 - o                                     * 4 y 2 O                 ",
"              o             o                                                             ",
"              + &       o                                                                 ",
"                                                                                          ",
"                                                                                          ",
"                                                                                          ",
"                                                                                          "
};
