/* XPM */
static char *result[] = {
/* columns rows colors chars-per-pixel */
"45 45 101 2 ",
"   c #595E72",
".  c #565A6D",
"X  c #4B4C5A",
"o  c #484855",
"O  c #484956",
"+  c #CCBB9E",
"@  c #CCBB9F",
"#  c #CBBA9D",
"$  c #C9B899",
"%  c #C8B798",
"&  c #C9B798",
"*  c #EED7AC",
"=  c #EDD7AB",
"-  c #EDD6AB",
";  c #EDD7AC",
":  c #EDD6AA",
">  c #E5C9A1",
",  c #E9D2A8",
"<  c #EAD4AA",
"1  c #EAD5AC",
"2  c #EAD8B4",
"3  c #EAD9B6",
"4  c #CF9D7D",
"5  c #E4C9A1",
"6  c #EBD5AB",
"7  c #EAD4A9",
"8  c #EBE8DC",
"9  c #ECECE8",
"0  c #C99274",
"q  c #E4C7A0",
"w  c #ECD7AC",
"e  c #EAD5AB",
"r  c #EAD9B7",
"t  c #ECF2F6",
"y  c #C89173",
"u  c #DEBC96",
"i  c #E4C8A1",
"p  c #E4C8A0",
"a  c #E8CCA1",
"s  c #E9CDA1",
"d  c #E9CCA0",
"f  c #E9D2AC",
"g  c #EBE6DA",
"h  c #C3876B",
"j  c #C79072",
"k  c #CD9675",
"l  c #E0A97A",
"z  c #E5AE7B",
"x  c #E5AD7B",
"c  c #E5AD7A",
"v  c #E6B484",
"b  c #C28569",
"n  c #C18468",
"m  c #C18368",
"M  c #C78969",
"N  c #DFA06F",
"B  c #E5A671",
"V  c #E4A571",
"C  c #E4A470",
"Z  c #C18569",
"A  c #C78A6B",
"S  c #DFA171",
"D  c #E5A672",
"F  c #E4A672",
"G  c #DFA170",
"H  c #E3A572",
"J  c #E0A271",
"K  c #CC8F6C",
"L  c #C78A6A",
"P  c #C18469",
"I  c #C08469",
"U  c #C38669",
"Y  c #C6896A",
"T  c #DA9C6F",
"R  c #E5A772",
"E  c #C7896A",
"W  c #C08368",
"Q  c #E0A372",
"!  c #CD9573",
"~  c #C79173",
"^  c #E4AB79",
"/  c #E4C298",
"(  c #E3C9A1",
")  c #EACEA2",
"_  c #EBD7AD",
"`  c #EAD6AC",
"'  c #DFA070",
"]  c #E9CEA2",
"[  c #E6B483",
"{  c #DFA778",
"}  c #C88C6C",
"|  c #EAD3A8",
" . c #E3C198",
".. c #C89072",
"X. c #E9CDA2",
"o. c #C89174",
"O. c #E5AC7A",
"+. c #E8C699",
"@. c #E4A773",
"#. c #E3C7A0",
"$. c white",
/* pixels */
"      . X o O O o X .                                 . X o O O O O O o X .               ",
"+ @ @ # $ % & & % $ # @ @ @ @ @ @ @ @ @ @ @ @ @ @ @ @ # $ % & & & & & % $ # @ @ @ @ @ @ @ ",
"* = - = ; * ; ; * ; = - - - - - - - - - - - - - - - - = ; * ; ; ; ; ; * ; = - - : : : - - ",
"> , < < < < < < < < < < < < < < < < < < < < < < < < < < < < < < < < < < < < < 1 2 3 2 1 < ",
"4 5 6 < < < < < < < < < < < < < < < < < < < < < < < < < < < < < < < < < < < 7 2 8 9 8 2 7 ",
"0 q w 6 e e e e e e e e e e e e e e e e e e e e e e e e e e e e e e e e e e < r 9 t 9 3 7 ",
"y u i p a s s s s s s s s s s s s s s s s s s s s s s s s s s s s s s s s s d f g 9 8 2 7 ",
"h j y k l z x x x x x x x x x x x x x x x x x x x x x x x x x x x x x x x x c v f r 2 1 < ",
"b n m M N B V V V V V V V V V V V V V V V V V V V V V V V V V V V V V V V V C c d < 7 < < ",
"b b Z A S D F F F F F F F F F F F F F F F F F F F F F F F F F F F F F F F F V x s e < < < ",
"b b Z A G D F F F F F F F F F F F F F F F F F F F F F F F F F F F F F F F F V x s e < < < ",
"b b Z A G D F F F F D D D D D D D D D D D D D D D D D D D D D D D D F F F F V x s e < < < ",
"b b Z A G D F F F H J G G G G G G G G G G G G G G G G G G G G G G J H F F F V x s e < < < ",
"b b Z A G D F F D J K L A A A A A A A A A A A A A A A A A A A A L K J D F F V x s e < < < ",
"b b Z A G D F F D G L P Z P I I I I I I I I I I I I I I I I P Z P L G D F F V x s e < < < ",
"b b Z A G D F F D G A Z U Y A A A A A A A A A A A A A A A A Y U Z A G D F F V x s e < < < ",
"b b Z A G D F F D G A P Y T S G G G G G G G G G G G G G G S T Y P A G D F F V x s e < < < ",
"b b Z A G D F F R G E W E G R D D D D D D D D D D D D D D R S A I A G D F F V x s e < < < ",
"b b Z A G D F F D Q ! ~ ! Q D F F F F F F F F F F F F F F D G A I A G D F F V x s e < < < ",
"b b Z A G D F F V ^ / ( / ^ V F F F F F F F F F F F F F F D G A I A G D F F V x s e < < < ",
"b b Z A G D F F V z ) _ ) z V F F F F F F F F F F F F F F D G A I A G D F F V x s e < < < ",
"b b Z A G D F F V x s ` s x V F F F F F F F F F F F F F F D G A I A G D F F V x s e < < < ",
"b b Z A G D F F V x s ` s x V F F F F F F F F F F F F F F D G A I A G D F F V x s e < < < ",
"b b Z A G D F F V x s ` s x V F F F F F F F F F F F F F F D G A I A G D F F V x s e < < < ",
"b b Z A G D F F V x s ` s x V F F F F F F F F F F F F F F D G A I A G D F F V x s e < < < ",
"b b Z A G D F F V x s ` s x V F F F F F F F F F F F F F F D G A I A G D F F V x s e < < < ",
"b b Z A G D F F V x s ` s x V F F F F F F F F F F F F F F D G A I A G D F F V x s e < < < ",
"b b Z A G D F F V x s ` s x V F F F F F F F F F F F F F F D G A I A G D F F V x s e < < < ",
"b b Z A G D F F V x s ` s x V F F F F F F F F F F F F F F D G A I A G D F F V x s e < < < ",
"b b Z A G D F F V x s ` s x V F F F F F F F F F F F F F F D G A I A G D F F V x s e < < < ",
"b b Z A G D F F V x s ` s x V F F F F F F F F F F F F F F D G A I A G D F F V x s e < < < ",
"b b Z A G D F F V x s ` s x V F F F F F F F F F F F F F F D S A I A G D F F V x s e < < < ",
"b b Z A G D F F V x s ` s c C V V V V V V V V V V V V V V B ' L I A G D F F V x s e < < < ",
"b b Z A G D F F V x s ` ] [ c x x x x x x x x x x x x x x z { } P A G D F F V x s e < < < ",
"b b Z A G D F F V x s e | ] s s s s s s s s s s s s s s s )  ...W A G D F F V x s e < < < ",
"b b Z A G D F F V x X.` e ` ` ` ` ` ` ` ` ` ` ` ` ` ` ` ` _ 5 o.W L G D F F V x s e < < < ",
"b b Z A G D F F V O.+.X.s s s s s s s s s s s s s s s s s ) / ! M K J D F F V x s e < < < ",
"b b Z A G D F F F @.O.x x x x x x x x x x x x x x x x x x z ^ Q G J H F F F V x s e < < < ",
"b b Z A G D F F F F V V V V V V V V V V V V V V V V V V V V V D R D F F F F V x s e < < < ",
"b b Z A G D F F F F F F F F F F F F F F F F F F F F F F F F F F F F F F F F V x s e < < < ",
"b b Z A G D F F F F F F F F F F F F F F F F F F F F F F F F F F F F F F F F V x s e < < < ",
"b b Z A S R D D D D D D D D D D D D D D D D D D D D D D D D D D D D D D D D B z s e < < < ",
"b b Z Y T S G G G G G G G G G G G G G G G G G G G G G G G G G G G G G G G S N l a e < < < ",
"b b b U Y A L L L L L L L L L L L L L L L L L L L L L L L L L L L L L L L A M k p 6 < < < ",
"b b b b Z Z b b b b b b b b b b b b b b b b b b b b b b b b b b b b b b b b m y #.6 < < < "
};
