/* XPM */
static char *result[] = {
/* columns rows colors chars-per-pixel */
"90 90 142 2 ",
"   c #354064",
".  c #354065",
"X  c #30395B",
"o  c #252C49",
"O  c #1F2540",
"+  c #202540",
"@  c #202641",
"#  c #636676",
"$  c #646676",
"%  c #646677",
"&  c #606170",
"*  c #585762",
"=  c #54525B",
"-  c #54535C",
";  c #BEB099",
":  c #BCAE97",
">  c #BAAB92",
",  c #B8A990",
"<  c #B9A990",
"1  c #EED7AC",
"2  c #EED8AC",
"3  c #EFD8AC",
"4  c #EDD6AB",
"5  c #EDD7AC",
"6  c #EDD6AC",
"7  c #EBD5AB",
"8  c #EAD5AB",
"9  c #EAD4AA",
"0  c #EAD4A9",
"q  c #EBD6AC",
"w  c #EAD3A8",
"e  c #E0C09A",
"r  c #E3C59E",
"t  c #E8CFA6",
"y  c #EAD6AE",
"u  c #EAD9B7",
"i  c #EADBBC",
"p  c #EADBBB",
"a  c #CB9677",
"s  c #D3A684",
"d  c #E2C59E",
"f  c #EBE4D3",
"g  c #ECEAE1",
"h  c #C08165",
"j  c #E0C099",
"k  c #ECF1F4",
"l  c #C08166",
"z  c #CB9778",
"x  c #ECF1F3",
"c  c #C18367",
"v  c #CC9879",
"b  c #E0C19A",
"n  c #ECD7AD",
"m  c #EBDBBC",
"M  c #E1C19B",
"N  c #ECD8AD",
"B  c #EBD6AB",
"V  c #EAD5AA",
"C  c #EBDCBD",
"Z  c #C99375",
"A  c #D9B28E",
"S  c #E1C29B",
"D  c #E2C39B",
"F  c #E7C79C",
"G  c #E9C99D",
"H  c #E9C99C",
"J  c #E9C89B",
"K  c #E8C89B",
"L  c #E9D1AD",
"P  c #EBE1D0",
"I  c #C28469",
"U  c #C4896D",
"Y  c #CC9979",
"T  c #CB9879",
"R  c #CB9779",
"E  c #D29E7A",
"W  c #DFAB7E",
"Q  c #E6B280",
"!  c #E6B180",
"~  c #E5B180",
"^  c #E5B07F",
"/  c #E5B07E",
"(  c #E7BB8E",
")  c #C28569",
"_  c #C18468",
"`  c #C08267",
"'  c #C98B6A",
"]  c #DB9D6E",
"[  c #E5A671",
"{  c #E4A571",
"}  c #E4A470",
"|  c #E4A46F",
" . c #C28468",
".. c #C18368",
"X. c #CA8C6A",
"o. c #DC9D6F",
"O. c #E4A671",
"+. c #E4A570",
"@. c #C18569",
"#. c #C18469",
"$. c #CA8D6B",
"%. c #DC9E70",
"&. c #E5A772",
"*. c #E5A672",
"=. c #E4A672",
"-. c #E2A471",
";. c #DEA070",
":. c #D0936D",
">. c #CA8C6B",
",. c #C08369",
"<. c #C4876A",
"1. c #C88B6B",
"2. c #D6986E",
"3. c #DC9F70",
"4. c #E6A872",
"5. c #DC9E6F",
"6. c #C98C6A",
"7. c #DEA374",
"8. c #D29B77",
"9. c #E3AD7C",
"0. c #E1BA91",
"q. c #E0C29B",
"w. c #E0C19B",
"e. c #E9CA9E",
"r. c #EBD7AD",
"t. c #EBD7AC",
"y. c #E9CA9D",
"u. c #E5B17F",
"i. c #E9CCA0",
"p. c #E7BA8A",
"a. c #DDA67A",
"s. c #CB906E",
"d. c #EAD1A7",
"f. c #DFB990",
"g. c #CB9575",
"h. c #EAD6AC",
"j. c #EAD5AC",
"k. c #EAD6AD",
"l. c #E5AE7C",
"z. c #E7C092",
"x. c #E4A975",
"c. c white",
/* pixels */
"            . X o O + @ @ @ @ @ @ + O o X .                                                                 . X o O + @ @ @ @ @ @ @ @ @ @ @ @ + O o X .                             ",
"# # # # # $ % & * = - - - - - - - - = * & % $ # # # # # # # # # # # # # # # # # # # # # # # # # # # # # # $ % & * = - - - - - - - - - - - - - - = * & % $ # # # # # # # # # # # # # ",
"; ; ; ; ; ; ; : > , , < < < < < < , , > : ; ; ; ; ; ; ; ; ; ; ; ; ; ; ; ; ; ; ; ; ; ; ; ; ; ; ; ; ; ; ; ; ; ; : > , , < < < < < < < < < < < < , , > : ; ; ; ; ; ; ; ; ; ; ; ; ; ; ; ",
"1 1 1 1 1 1 1 2 2 3 3 3 3 3 3 3 3 3 3 2 2 1 1 1 1 1 1 1 1 1 1 1 1 1 1 1 1 1 1 1 1 1 1 1 1 1 1 1 1 1 1 1 1 1 1 2 2 3 3 3 3 3 3 3 3 3 3 3 3 3 3 3 3 2 2 1 1 1 1 1 1 1 1 1 1 1 1 1 1 1 ",
"4 4 4 4 4 4 4 4 4 5 6 6 6 6 6 6 6 6 5 4 4 4 4 4 4 4 4 4 4 4 4 4 4 4 4 4 4 4 4 4 4 4 4 4 4 4 4 4 4 4 4 4 4 4 4 4 4 5 6 6 6 6 6 6 6 6 6 6 6 6 6 6 5 4 4 4 4 4 4 4 4 4 4 4 4 4 4 4 4 4 ",
"7 8 9 9 9 9 9 9 9 9 9 9 9 9 9 9 9 9 9 9 9 9 9 9 9 9 9 9 9 9 9 9 9 9 9 9 9 9 9 9 9 9 9 9 9 9 9 9 9 9 9 9 9 9 9 9 9 9 9 9 9 9 9 9 9 9 9 9 9 9 9 9 9 9 9 9 9 9 9 9 0 0 0 0 0 0 9 9 9 9 ",
"q 7 9 9 9 9 9 9 9 9 9 9 9 9 9 9 9 9 9 9 9 9 9 9 9 9 9 9 9 9 9 9 9 9 9 9 9 9 9 9 9 9 9 9 9 9 9 9 9 9 9 9 9 9 9 9 9 9 9 9 9 9 9 9 9 9 9 9 9 9 9 9 9 9 9 9 9 9 9 9 0 w w w w 0 9 9 9 9 ",
"e r t 9 9 9 9 9 9 9 9 9 9 9 9 9 9 9 9 9 9 9 9 9 9 9 9 9 9 9 9 9 9 9 9 9 9 9 9 9 9 9 9 9 9 9 9 9 9 9 9 9 9 9 9 9 9 9 9 9 9 9 9 9 9 9 9 9 9 9 9 9 9 9 9 9 9 9 9 y u i p p i u y 9 9 9 ",
"a s d 7 8 9 9 9 9 9 9 9 9 9 9 9 9 9 9 9 9 9 9 9 9 9 9 9 9 9 9 9 9 9 9 9 9 9 9 9 9 9 9 9 9 9 9 9 9 9 9 9 9 9 9 9 9 9 9 9 9 9 9 9 9 9 9 9 9 9 9 9 9 9 9 9 9 0 0 u f g g g g f u 0 0 9 ",
"h a j q 7 9 9 9 9 9 9 9 9 9 9 9 9 9 9 9 9 9 9 9 9 9 9 9 9 9 9 9 9 9 9 9 9 9 9 9 9 9 9 9 9 9 9 9 9 9 9 9 9 9 9 9 9 9 9 9 9 9 9 9 9 9 9 9 9 9 9 9 9 9 9 9 9 0 w i g k k k k g i w 0 9 ",
"l z j q 7 9 9 9 9 9 9 9 9 9 9 9 9 9 9 9 9 9 9 9 9 9 9 9 9 9 9 9 9 9 9 9 9 9 9 9 9 9 9 9 9 9 9 9 9 9 9 9 9 9 9 9 9 9 9 9 9 9 9 9 9 9 9 9 9 9 9 9 9 9 9 9 9 0 w p g k x x k g p w 0 9 ",
"c v b n q 7 7 8 8 8 8 8 8 8 8 8 8 8 8 8 8 8 8 8 8 8 8 8 8 8 8 8 8 8 8 8 8 8 8 8 8 8 8 8 8 8 8 8 8 8 8 8 8 8 8 8 8 8 8 8 8 8 8 8 8 8 8 8 8 8 8 8 8 8 8 8 8 9 0 m g k x x k g p w 0 9 ",
"c v M N n q q B 8 8 8 8 8 8 8 8 8 8 8 8 8 8 8 8 8 8 8 8 8 8 8 8 8 8 8 8 8 8 8 8 8 8 8 8 8 8 8 8 8 8 8 8 8 8 8 8 8 8 8 8 8 8 8 8 8 8 8 8 8 8 8 8 8 8 8 8 8 V 9 C g k k k k g i w 0 9 ",
"c Z A S S b b D F G G H H H H H H H H H H H H H H H H H H H H H H H H H H H H H H H H H H H H H H H H H H H H H H H H H H H H H H H H H H H H H H H H H H J K L P g g g g f u 0 0 9 ",
"I U Z Y v T R E W Q ! ~ ~ ~ ~ ~ ~ ~ ~ ~ ~ ~ ~ ~ ~ ~ ~ ~ ~ ~ ~ ~ ~ ~ ~ ~ ~ ~ ~ ~ ~ ~ ~ ~ ~ ~ ~ ~ ~ ~ ~ ~ ~ ~ ~ ~ ~ ~ ~ ~ ~ ~ ~ ~ ~ ~ ~ ~ ~ ~ ~ ~ ~ ~ ~ ~ ~ ^ / ( L C m p i u y 9 9 9 ",
") ) _ c c c ` ' ] [ { { { { { { { { { { { { { { { { { { { { { { { { { { { { { { { { { { { { { { { { { { { { { { { { { { { { { { { { { { { { { { { { { { { } | / K 9 0 w w 0 9 9 9 9 ",
") )  ._ _ ....X.o.[ O.{ { { { { { { { { { { { { { { { { { { { { { { { { { { { { { { { { { { { { { { { { { { { { { { { { { { { { { { { { { { { { { { { { { +.} ^ J V 9 0 0 0 9 9 9 9 ",
") ) ) ) ) @.#.$.%.&.*.=.=.=.=.=.=.=.=.=.=.=.=.=.=.=.=.=.=.=.=.=.=.=.=.=.=.=.=.=.=.=.=.=.=.=.=.=.=.=.=.=.=.=.=.=.=.=.=.=.=.=.=.=.=.=.=.=.=.=.=.=.=.=.=.=.=.{ { ~ H 8 8 9 9 9 9 9 9 9 ",
") ) ) ) ) @.#.$.%.&.*.=.=.=.=.=.=.=.=.=.=.=.=.=.=.=.=.=.=.=.=.=.=.=.=.=.=.=.=.=.=.=.=.=.=.=.=.=.=.=.=.=.=.=.=.=.=.=.=.=.=.=.=.=.=.=.=.=.=.=.=.=.=.=.=.=.=.{ { ~ H 8 8 9 9 9 9 9 9 9 ",
") ) ) ) ) @.#.$.%.&.*.=.=.=.=.=.=.=.=.=.=.=.=.=.=.=.=.=.=.=.=.=.=.=.=.=.=.=.=.=.=.=.=.=.=.=.=.=.=.=.=.=.=.=.=.=.=.=.=.=.=.=.=.=.=.=.=.=.=.=.=.=.=.=.=.=.=.{ { ~ H 8 8 9 9 9 9 9 9 9 ",
") ) ) ) ) @.#.$.%.&.*.=.=.=.=.=.=.=.=.=.=.=.=.=.=.=.=.=.=.=.=.=.=.=.=.=.=.=.=.=.=.=.=.=.=.=.=.=.=.=.=.=.=.=.=.=.=.=.=.=.=.=.=.=.=.=.=.=.=.=.=.=.=.=.=.=.=.{ { ~ H 8 8 9 9 9 9 9 9 9 ",
") ) ) ) ) @.#.$.%.&.*.=.=.=.=.=.=.=.=.=.=.=.=.=.=.=.=.=.=.=.=.=.=.=.=.=.=.=.=.=.=.=.=.=.=.=.=.=.=.=.=.=.=.=.=.=.=.=.=.=.=.=.=.=.=.=.=.=.=.=.=.=.=.=.=.=.=.{ { ~ H 8 8 9 9 9 9 9 9 9 ",
") ) ) ) ) @.#.$.%.&.*.=.=.=.=.=.=.=.=.=.=.=.=.=.=.=.=.=.=.=.=.=.=.=.=.=.=.=.=.=.=.=.=.=.=.=.=.=.=.=.=.=.=.=.=.=.=.=.=.=.=.=.=.=.=.=.=.=.=.=.=.=.=.=.=.=.=.{ { ~ H 8 8 9 9 9 9 9 9 9 ",
") ) ) ) ) @.#.$.%.&.*.=.=.=.=.=.=.=.=.=.=.*.*.*.*.*.*.*.*.*.*.*.*.*.*.*.*.*.*.*.*.*.*.*.*.*.*.*.*.*.*.*.*.*.*.*.*.*.*.*.*.*.*.*.*.*.*.=.=.=.=.=.=.=.=.=.=.{ { ~ H 8 8 9 9 9 9 9 9 9 ",
") ) ) ) ) @.#.$.%.&.*.=.=.=.=.=.=.=.=.=.&.&.&.&.&.&.&.&.&.&.&.&.&.&.&.&.&.&.&.&.&.&.&.&.&.&.&.&.&.&.&.&.&.&.&.&.&.&.&.&.&.&.&.&.&.&.&.&.=.=.=.=.=.=.=.=.=.{ { ~ H 8 8 9 9 9 9 9 9 9 ",
") ) ) ) ) @.#.$.%.&.*.=.=.=.=.=.=.=.=.-.;.%.%.%.%.%.%.%.%.%.%.%.%.%.%.%.%.%.%.%.%.%.%.%.%.%.%.%.%.%.%.%.%.%.%.%.%.%.%.%.%.%.%.%.%.%.%.;.-.=.=.=.=.=.=.=.=.{ { ~ H 8 8 9 9 9 9 9 9 9 ",
") ) ) ) ) @.#.$.%.&.*.=.=.=.=.=.=.=.&.;.:.>.$.$.$.$.$.$.$.$.$.$.$.$.$.$.$.$.$.$.$.$.$.$.$.$.$.$.$.$.$.$.$.$.$.$.$.$.$.$.$.$.$.$.$.$.>.:.;.&.=.=.=.=.=.=.=.{ { ~ H 8 8 9 9 9 9 9 9 9 ",
") ) ) ) ) @.#.$.%.&.*.=.=.=.=.=.=.*.&.%.>.,.#.#.#.#.#.#.#.#.#.#.#.#.#.#.#.#.#.#.#.#.#.#.#.#.#.#.#.#.#.#.#.#.#.#.#.#.#.#.#.#.#.#.#.#.,.>.%.&.*.=.=.=.=.=.=.{ { ~ H 8 8 9 9 9 9 9 9 9 ",
") ) ) ) ) @.#.$.%.&.*.=.=.=.=.=.=.*.&.%.$.#.#.@.@.@.@.@.@.@.@.@.@.@.@.@.@.@.@.@.@.@.@.@.@.@.@.@.@.@.@.@.@.@.@.@.@.@.@.@.@.@.@.@.@.#.#.$.%.&.*.=.=.=.=.=.=.{ { ~ H 8 8 9 9 9 9 9 9 9 ",
") ) ) ) ) @.#.$.%.&.*.=.=.=.=.=.=.*.&.%.$.#.@.) ) ) ) @.@.@.@.@.@.@.@.@.@.@.@.@.@.@.@.@.@.@.@.@.@.@.@.@.@.@.@.@.@.@.@.@.@.) ) ) ) @.#.$.%.&.*.=.=.=.=.=.=.{ { ~ H 8 8 9 9 9 9 9 9 9 ",
") ) ) ) ) @.#.$.%.&.*.=.=.=.=.=.=.*.&.%.$.#.@.) ) ) #.#.#.#.#.#.#.#.#.#.#.#.#.#.#.#.#.#.#.#.#.#.#.#.#.#.#.#.#.#.#.#.#.#.#.#.) ) ) @.#.$.%.&.*.=.=.=.=.=.=.{ { ~ H 8 8 9 9 9 9 9 9 9 ",
") ) ) ) ) @.#.$.%.&.*.=.=.=.=.=.=.*.&.%.$.#.@.) ) <.1.$.$.$.$.$.$.$.$.$.$.$.$.$.$.$.$.$.$.$.$.$.$.$.$.$.$.$.$.$.$.$.$.$.$.1.<.) ) @.#.$.%.&.*.=.=.=.=.=.=.{ { ~ H 8 8 9 9 9 9 9 9 9 ",
") ) ) ) ) @.#.$.%.&.*.=.=.=.=.=.=.*.&.%.$.#.@.) #.1.2.3.%.%.%.%.%.%.%.%.%.%.%.%.%.%.%.%.%.%.%.%.%.%.%.%.%.%.%.%.%.%.%.%.3.2.1.#.) @.#.$.%.&.*.=.=.=.=.=.=.{ { ~ H 8 8 9 9 9 9 9 9 9 ",
") ) ) ) ) @.#.$.%.&.*.=.=.=.=.=.=.*.&.%.$.#.@.@.#.$.3.4.&.&.&.&.&.&.&.&.&.&.&.&.&.&.&.&.&.&.&.&.&.&.&.&.&.&.&.&.&.&.&.&.4.3.$.#.@.@.#.$.%.&.*.=.=.=.=.=.=.{ { ~ H 8 8 9 9 9 9 9 9 9 ",
") ) ) ) ) @.#.$.%.&.*.=.=.=.=.=.=.*.&.%.$.#.@.@.#.$.%.&.&.*.*.*.*.*.*.*.*.*.*.*.*.*.*.*.*.*.*.*.*.*.*.*.*.*.*.*.*.*.*.&.&.%.$.#.@.@.#.$.%.&.*.=.=.=.=.=.=.{ { ~ H 8 8 9 9 9 9 9 9 9 ",
") ) ) ) ) @.#.$.%.&.*.=.=.=.=.=.=.&.&.%.X.........X.%.&.&.=.=.=.=.=.=.=.=.=.=.=.=.=.=.=.=.=.=.=.=.=.=.=.=.=.=.=.=.=.=.*.&.%.$.#.@.@.#.$.%.&.*.=.=.=.=.=.=.{ { ~ H 8 8 9 9 9 9 9 9 9 ",
") ) ) ) ) @.#.$.%.&.*.=.=.=.=.=.=.&.&.5.6.` c c ` 6.5.&.&.=.=.=.=.=.=.=.=.=.=.=.=.=.=.=.=.=.=.=.=.=.=.=.=.=.=.=.=.=.=.*.&.%.$.#.@.@.#.$.%.&.*.=.=.=.=.=.=.{ { ~ H 8 8 9 9 9 9 9 9 9 ",
") ) ) ) ) @.#.$.%.&.*.=.=.=.=.=.=.=.*.7.8.T T T T 8.7.*.=.=.=.=.=.=.=.=.=.=.=.=.=.=.=.=.=.=.=.=.=.=.=.=.=.=.=.=.=.=.=.*.&.%.$.#.@.@.#.$.%.&.*.=.=.=.=.=.=.{ { ~ H 8 8 9 9 9 9 9 9 9 ",
") ) ) ) ) @.#.$.%.&.*.=.=.=.=.=.=.O.{ 9.0.q.w.w.q.0.9.{ O.=.=.=.=.=.=.=.=.=.=.=.=.=.=.=.=.=.=.=.=.=.=.=.=.=.=.=.=.=.=.*.&.%.$.#.@.@.#.$.%.&.*.=.=.=.=.=.=.{ { ~ H 8 8 9 9 9 9 9 9 9 ",
") ) ) ) ) @.#.$.%.&.*.=.=.=.=.=.=.{ { Q e.r.t.t.r.e.Q { { =.=.=.=.=.=.=.=.=.=.=.=.=.=.=.=.=.=.=.=.=.=.=.=.=.=.=.=.=.=.*.&.%.$.#.@.@.#.$.%.&.*.=.=.=.=.=.=.{ { ~ H 8 8 9 9 9 9 9 9 9 ",
") ) ) ) ) @.#.$.%.&.*.=.=.=.=.=.=.{ { ! y.q q q q y.! { { =.=.=.=.=.=.=.=.=.=.=.=.=.=.=.=.=.=.=.=.=.=.=.=.=.=.=.=.=.=.*.&.%.$.#.@.@.#.$.%.&.*.=.=.=.=.=.=.{ { ~ H 8 8 9 9 9 9 9 9 9 ",
") ) ) ) ) @.#.$.%.&.*.=.=.=.=.=.=.{ { ~ H 8 8 8 8 H ~ { { =.=.=.=.=.=.=.=.=.=.=.=.=.=.=.=.=.=.=.=.=.=.=.=.=.=.=.=.=.=.*.&.%.$.#.@.@.#.$.%.&.*.=.=.=.=.=.=.{ { ~ H 8 8 9 9 9 9 9 9 9 ",
") ) ) ) ) @.#.$.%.&.*.=.=.=.=.=.=.{ { ~ H 8 8 8 8 H ~ { { =.=.=.=.=.=.=.=.=.=.=.=.=.=.=.=.=.=.=.=.=.=.=.=.=.=.=.=.=.=.*.&.%.$.#.@.@.#.$.%.&.*.=.=.=.=.=.=.{ { ~ H 8 8 9 9 9 9 9 9 9 ",
") ) ) ) ) @.#.$.%.&.*.=.=.=.=.=.=.{ { ~ H 8 8 8 8 H ~ { { =.=.=.=.=.=.=.=.=.=.=.=.=.=.=.=.=.=.=.=.=.=.=.=.=.=.=.=.=.=.*.&.%.$.#.@.@.#.$.%.&.*.=.=.=.=.=.=.{ { ~ H 8 8 9 9 9 9 9 9 9 ",
") ) ) ) ) @.#.$.%.&.*.=.=.=.=.=.=.{ { ~ H 8 8 8 8 H ~ { { =.=.=.=.=.=.=.=.=.=.=.=.=.=.=.=.=.=.=.=.=.=.=.=.=.=.=.=.=.=.*.&.%.$.#.@.@.#.$.%.&.*.=.=.=.=.=.=.{ { ~ H 8 8 9 9 9 9 9 9 9 ",
") ) ) ) ) @.#.$.%.&.*.=.=.=.=.=.=.{ { ~ H 8 8 8 8 H ~ { { =.=.=.=.=.=.=.=.=.=.=.=.=.=.=.=.=.=.=.=.=.=.=.=.=.=.=.=.=.=.*.&.%.$.#.@.@.#.$.%.&.*.=.=.=.=.=.=.{ { ~ H 8 8 9 9 9 9 9 9 9 ",
") ) ) ) ) @.#.$.%.&.*.=.=.=.=.=.=.{ { ~ H 8 8 8 8 H ~ { { =.=.=.=.=.=.=.=.=.=.=.=.=.=.=.=.=.=.=.=.=.=.=.=.=.=.=.=.=.=.*.&.%.$.#.@.@.#.$.%.&.*.=.=.=.=.=.=.{ { ~ H 8 8 9 9 9 9 9 9 9 ",
") ) ) ) ) @.#.$.%.&.*.=.=.=.=.=.=.{ { ~ H 8 8 8 8 H ~ { { =.=.=.=.=.=.=.=.=.=.=.=.=.=.=.=.=.=.=.=.=.=.=.=.=.=.=.=.=.=.*.&.%.$.#.@.@.#.$.%.&.*.=.=.=.=.=.=.{ { ~ H 8 8 9 9 9 9 9 9 9 ",
") ) ) ) ) @.#.$.%.&.*.=.=.=.=.=.=.{ { ~ H 8 8 8 8 H ~ { { =.=.=.=.=.=.=.=.=.=.=.=.=.=.=.=.=.=.=.=.=.=.=.=.=.=.=.=.=.=.*.&.%.$.#.@.@.#.$.%.&.*.=.=.=.=.=.=.{ { ~ H 8 8 9 9 9 9 9 9 9 ",
") ) ) ) ) @.#.$.%.&.*.=.=.=.=.=.=.{ { ~ H 8 8 8 8 H ~ { { =.=.=.=.=.=.=.=.=.=.=.=.=.=.=.=.=.=.=.=.=.=.=.=.=.=.=.=.=.=.*.&.%.$.#.@.@.#.$.%.&.*.=.=.=.=.=.=.{ { ~ H 8 8 9 9 9 9 9 9 9 ",
") ) ) ) ) @.#.$.%.&.*.=.=.=.=.=.=.{ { ~ H 8 8 8 8 H ~ { { =.=.=.=.=.=.=.=.=.=.=.=.=.=.=.=.=.=.=.=.=.=.=.=.=.=.=.=.=.=.*.&.%.$.#.@.@.#.$.%.&.*.=.=.=.=.=.=.{ { ~ H 8 8 9 9 9 9 9 9 9 ",
") ) ) ) ) @.#.$.%.&.*.=.=.=.=.=.=.{ { ~ H 8 8 8 8 H ~ { { =.=.=.=.=.=.=.=.=.=.=.=.=.=.=.=.=.=.=.=.=.=.=.=.=.=.=.=.=.=.*.&.%.$.#.@.@.#.$.%.&.*.=.=.=.=.=.=.{ { ~ H 8 8 9 9 9 9 9 9 9 ",
") ) ) ) ) @.#.$.%.&.*.=.=.=.=.=.=.{ { ~ H 8 8 8 8 H ~ { { =.=.=.=.=.=.=.=.=.=.=.=.=.=.=.=.=.=.=.=.=.=.=.=.=.=.=.=.=.=.*.&.%.$.#.@.@.#.$.%.&.*.=.=.=.=.=.=.{ { ~ H 8 8 9 9 9 9 9 9 9 ",
") ) ) ) ) @.#.$.%.&.*.=.=.=.=.=.=.{ { ~ H 8 8 8 8 H ~ { { =.=.=.=.=.=.=.=.=.=.=.=.=.=.=.=.=.=.=.=.=.=.=.=.=.=.=.=.=.=.*.&.%.$.#.@.@.#.$.%.&.*.=.=.=.=.=.=.{ { ~ H 8 8 9 9 9 9 9 9 9 ",
") ) ) ) ) @.#.$.%.&.*.=.=.=.=.=.=.{ { ~ H 8 8 8 8 H ~ { { =.=.=.=.=.=.=.=.=.=.=.=.=.=.=.=.=.=.=.=.=.=.=.=.=.=.=.=.=.=.*.&.%.$.#.@.@.#.$.%.&.*.=.=.=.=.=.=.{ { ~ H 8 8 9 9 9 9 9 9 9 ",
") ) ) ) ) @.#.$.%.&.*.=.=.=.=.=.=.{ { ~ H 8 8 8 8 H ~ { { =.=.=.=.=.=.=.=.=.=.=.=.=.=.=.=.=.=.=.=.=.=.=.=.=.=.=.=.=.=.*.&.%.$.#.@.@.#.$.%.&.*.=.=.=.=.=.=.{ { ~ H 8 8 9 9 9 9 9 9 9 ",
") ) ) ) ) @.#.$.%.&.*.=.=.=.=.=.=.{ { ~ H 8 8 8 8 H ~ { { =.=.=.=.=.=.=.=.=.=.=.=.=.=.=.=.=.=.=.=.=.=.=.=.=.=.=.=.=.=.*.&.%.$.#.@.@.#.$.%.&.*.=.=.=.=.=.=.{ { ~ H 8 8 9 9 9 9 9 9 9 ",
") ) ) ) ) @.#.$.%.&.*.=.=.=.=.=.=.{ { ~ H 8 8 8 8 H ~ { { =.=.=.=.=.=.=.=.=.=.=.=.=.=.=.=.=.=.=.=.=.=.=.=.=.=.=.=.=.=.*.&.%.$.#.@.@.#.$.%.&.*.=.=.=.=.=.=.{ { ~ H 8 8 9 9 9 9 9 9 9 ",
") ) ) ) ) @.#.$.%.&.*.=.=.=.=.=.=.{ { ~ H 8 8 8 8 H ~ { { =.=.=.=.=.=.=.=.=.=.=.=.=.=.=.=.=.=.=.=.=.=.=.=.=.=.=.=.=.=.*.&.%.$.#.@.@.#.$.%.&.*.=.=.=.=.=.=.{ { ~ H 8 8 9 9 9 9 9 9 9 ",
") ) ) ) ) @.#.$.%.&.*.=.=.=.=.=.=.{ { ~ H 8 8 8 8 H ~ { { =.=.=.=.=.=.=.=.=.=.=.=.=.=.=.=.=.=.=.=.=.=.=.=.=.=.=.=.=.=.*.&.%.$.#.@.@.#.$.%.&.*.=.=.=.=.=.=.{ { ~ H 8 8 9 9 9 9 9 9 9 ",
") ) ) ) ) @.#.$.%.&.*.=.=.=.=.=.=.{ { ~ H 8 8 8 8 H ~ { { =.=.=.=.=.=.=.=.=.=.=.=.=.=.=.=.=.=.=.=.=.=.=.=.=.=.=.=.=.=.*.&.%.$.#.@.@.#.$.%.&.*.=.=.=.=.=.=.{ { ~ H 8 8 9 9 9 9 9 9 9 ",
") ) ) ) ) @.#.$.%.&.*.=.=.=.=.=.=.{ { ~ H 8 8 8 8 H ~ { { =.=.=.=.=.=.=.=.=.=.=.=.=.=.=.=.=.=.=.=.=.=.=.=.=.=.=.=.=.=.*.&.%.$.#.@.@.#.$.%.&.*.=.=.=.=.=.=.{ { ~ H 8 8 9 9 9 9 9 9 9 ",
") ) ) ) ) @.#.$.%.&.*.=.=.=.=.=.=.{ { ~ H 8 8 8 8 H ~ { { =.=.=.=.=.=.=.=.=.=.=.=.=.=.=.=.=.=.=.=.=.=.=.=.=.=.=.=.=.=.*.&.%.$.#.@.@.#.$.%.&.*.=.=.=.=.=.=.{ { ~ H 8 8 9 9 9 9 9 9 9 ",
") ) ) ) ) @.#.$.%.&.*.=.=.=.=.=.=.{ { ~ H 8 8 8 8 H ~ { { =.=.=.=.=.=.=.=.=.=.=.=.=.=.=.=.=.=.=.=.=.=.=.=.=.=.=.=.=.=.*.&.%.$.#.@.@.#.$.%.&.*.=.=.=.=.=.=.{ { ~ H 8 8 9 9 9 9 9 9 9 ",
") ) ) ) ) @.#.$.%.&.*.=.=.=.=.=.=.{ { ~ H 8 8 8 8 H ~ { { =.=.=.=.=.=.=.=.=.=.=.=.=.=.=.=.=.=.=.=.=.=.=.=.=.=.=.=.=.=.*.&.%.$.#.@.@.#.$.%.&.*.=.=.=.=.=.=.{ { ~ H 8 8 9 9 9 9 9 9 9 ",
") ) ) ) ) @.#.$.%.&.*.=.=.=.=.=.=.{ { ~ H 8 8 8 8 H u.} +.{ { { { { { { { { { { { { { { { { { { { { { { { { { { { { { O.[ 5.$.#.@.@.#.$.%.&.*.=.=.=.=.=.=.{ { ~ H 8 8 9 9 9 9 9 9 9 ",
") ) ) ) ) @.#.$.%.&.*.=.=.=.=.=.=.{ { ~ H 8 8 8 8 H ^ | } { { { { { { { { { { { { { { { { { { { { { { { { { { { { { { { [ o.$.#.) @.#.$.%.&.*.=.=.=.=.=.=.{ { ~ H 8 8 9 9 9 9 9 9 9 ",
") ) ) ) ) @.#.$.%.&.*.=.=.=.=.=.=.{ { ~ H 8 8 8 8 i.p.^ u.~ ~ ~ ~ ~ ~ ~ ~ ~ ~ ~ ~ ~ ~ ~ ~ ~ ~ ~ ~ ~ ~ ~ ~ ~ ~ ~ ~ ~ ~ Q Q a.s._ #.@.#.$.%.&.*.=.=.=.=.=.=.{ { ~ H 8 8 9 9 9 9 9 9 9 ",
") ) ) ) ) @.#.$.%.&.*.=.=.=.=.=.=.{ { ~ H 8 8 9 9 d.i.H H H H H H H H H H H H H H H H H H H H H H H H H H H H H H H H y.e.f.g..._ @.#.$.%.&.*.=.=.=.=.=.=.{ { ~ H 8 8 9 9 9 9 9 9 9 ",
") ) ) ) ) @.#.$.%.&.*.=.=.=.=.=.=.{ { ~ H 8 8 9 9 9 8 8 8 8 8 8 8 8 8 8 8 8 8 8 8 8 8 8 8 8 8 8 8 8 8 8 8 8 8 8 8 8 8 q r.q.v c _ @.#.$.%.&.*.=.=.=.=.=.=.{ { ~ H 8 8 9 9 9 9 9 9 9 ",
") ) ) ) ) @.#.$.%.&.*.=.=.=.=.=.=.{ { ~ H 8 8 9 9 9 8 8 8 8 8 8 8 8 8 8 8 8 8 8 8 8 8 8 8 8 8 8 8 8 8 8 8 8 8 8 8 8 8 q t.w.v c _ @.#.$.%.&.*.=.=.=.=.=.=.{ { ~ H 8 8 9 9 9 9 9 9 9 ",
") ) ) ) ) @.#.$.%.&.*.=.=.=.=.=.=.{ { ~ G h.j.8 8 8 8 8 8 8 8 8 8 8 8 8 8 8 8 8 8 8 8 8 8 8 8 8 8 8 8 8 8 8 8 8 8 8 8 q t.w.T c ..#.#.$.%.&.*.=.=.=.=.=.=.{ { ~ H 8 8 9 9 9 9 9 9 9 ",
") ) ) ) ) @.#.$.%.&.*.=.=.=.=.=.=.{ { ~ y.k.h.8 8 8 8 8 8 8 8 8 8 8 8 8 8 8 8 8 8 8 8 8 8 8 8 8 8 8 8 8 8 8 8 8 8 8 8 q r.q.T ` ..#.,.>.%.&.*.=.=.=.=.=.=.{ { ~ H 8 8 9 9 9 9 9 9 9 ",
") ) ) ) ) @.#.$.%.&.*.=.=.=.=.=.=.{ { l.z.y.G H H H H H H H H H H H H H H H H H H H H H H H H H H H H H H H H H H H H y.e.0.8.6.X.$.>.:.;.&.=.=.=.=.=.=.=.{ { ~ H 8 8 9 9 9 9 9 9 9 ",
") ) ) ) ) @.#.$.%.&.*.=.=.=.=.=.=.=.=.x.l.~ ~ ~ ~ ~ ~ ~ ~ ~ ~ ~ ~ ~ ~ ~ ~ ~ ~ ~ ~ ~ ~ ~ ~ ~ ~ ~ ~ ~ ~ ~ ~ ~ ~ ~ ~ ~ ~ ! Q 9.7.5.%.%.%.;.-.=.=.=.=.=.=.=.=.{ { ~ H 8 8 9 9 9 9 9 9 9 ",
") ) ) ) ) @.#.$.%.&.*.=.=.=.=.=.=.=.=.=.{ { { { { { { { { { { { { { { { { { { { { { { { { { { { { { { { { { { { { { { { { { *.&.&.&.&.&.=.=.=.=.=.=.=.=.=.{ { ~ H 8 8 9 9 9 9 9 9 9 ",
") ) ) ) ) @.#.$.%.&.*.=.=.=.=.=.=.=.=.=.{ { { { { { { { { { { { { { { { { { { { { { { { { { { { { { { { { { { { { { { { { O.=.&.&.*.*.=.=.=.=.=.=.=.=.=.=.{ { ~ H 8 8 9 9 9 9 9 9 9 ",
") ) ) ) ) @.#.$.%.&.*.=.=.=.=.=.=.=.=.=.=.=.=.=.=.=.=.=.=.=.=.=.=.=.=.=.=.=.=.=.=.=.=.=.=.=.=.=.=.=.=.=.=.=.=.=.=.=.=.=.=.=.=.=.=.=.=.=.=.=.=.=.=.=.=.=.=.{ { ~ H 8 8 9 9 9 9 9 9 9 ",
") ) ) ) ) @.#.$.%.&.*.=.=.=.=.=.=.=.=.=.=.=.=.=.=.=.=.=.=.=.=.=.=.=.=.=.=.=.=.=.=.=.=.=.=.=.=.=.=.=.=.=.=.=.=.=.=.=.=.=.=.=.=.=.=.=.=.=.=.=.=.=.=.=.=.=.=.{ { ~ H 8 8 9 9 9 9 9 9 9 ",
") ) ) ) ) @.#.$.%.&.*.=.=.=.=.=.=.=.=.=.=.=.=.=.=.=.=.=.=.=.=.=.=.=.=.=.=.=.=.=.=.=.=.=.=.=.=.=.=.=.=.=.=.=.=.=.=.=.=.=.=.=.=.=.=.=.=.=.=.=.=.=.=.=.=.=.=.{ { ~ H 8 8 9 9 9 9 9 9 9 ",
") ) ) ) ) @.#.$.%.&.*.=.=.=.=.=.=.=.=.=.=.=.=.=.=.=.=.=.=.=.=.=.=.=.=.=.=.=.=.=.=.=.=.=.=.=.=.=.=.=.=.=.=.=.=.=.=.=.=.=.=.=.=.=.=.=.=.=.=.=.=.=.=.=.=.=.=.{ { ~ H 8 8 9 9 9 9 9 9 9 ",
") ) ) ) ) @.#.$.%.&.*.=.=.=.=.=.=.=.=.=.=.=.=.=.=.=.=.=.=.=.=.=.=.=.=.=.=.=.=.=.=.=.=.=.=.=.=.=.=.=.=.=.=.=.=.=.=.=.=.=.=.=.=.=.=.=.=.=.=.=.=.=.=.=.=.=.=.{ { ~ H 8 8 9 9 9 9 9 9 9 ",
") ) ) ) ) @.#.$.%.&.*.=.=.=.=.=.=.=.=.=.=.=.=.=.=.=.=.=.=.=.=.=.=.=.=.=.=.=.=.=.=.=.=.=.=.=.=.=.=.=.=.=.=.=.=.=.=.=.=.=.=.=.=.=.=.=.=.=.=.=.=.=.=.=.=.=.=.{ { ~ H 8 8 9 9 9 9 9 9 9 ",
") ) ) ) ) @.#.$.%.&.&.*.*.*.*.*.*.*.*.*.*.*.*.*.*.*.*.*.*.*.*.*.*.*.*.*.*.*.*.*.*.*.*.*.*.*.*.*.*.*.*.*.*.*.*.*.*.*.*.*.*.*.*.*.*.*.*.*.*.*.*.*.*.*.*.*.*.O.{ ! G 8 8 9 9 9 9 9 9 9 ",
") ) ) ) ) @.#.$.3.4.&.&.&.&.&.&.&.&.&.&.&.&.&.&.&.&.&.&.&.&.&.&.&.&.&.&.&.&.&.&.&.&.&.&.&.&.&.&.&.&.&.&.&.&.&.&.&.&.&.&.&.&.&.&.&.&.&.&.&.&.&.&.&.&.&.&.&.[ [ Q G 8 8 9 9 9 9 9 9 9 ",
") ) ) ) ) ) #.1.2.3.%.%.%.%.%.%.%.%.%.%.%.%.%.%.%.%.%.%.%.%.%.%.%.%.%.%.%.%.%.%.%.%.%.%.%.%.%.%.%.%.%.%.%.%.%.%.%.%.%.%.%.%.%.%.%.%.%.%.%.%.%.%.%.%.%.%.%.o.] W F 8 8 9 9 9 9 9 9 9 ",
") ) ) ) ) ) ) <.1.$.$.$.$.$.$.$.$.$.$.$.$.$.$.$.$.$.$.$.$.$.$.$.$.$.$.$.$.$.$.$.$.$.$.$.$.$.$.$.$.$.$.$.$.$.$.$.$.$.$.$.$.$.$.$.$.$.$.$.$.$.$.$.$.$.$.$.$.X.' E D B 8 9 9 9 9 9 9 9 ",
") ) ) ) ) ) ) ) #.#.#.#.#.#.#.#.#.#.#.#.#.#.#.#.#.#.#.#.#.#.#.#.#.#.#.#.#.#.#.#.#.#.#.#.#.#.#.#.#.#.#.#.#.#.#.#.#.#.#.#.#.#.#.#.#.#.#.#.#.#.#.#.#.#.#.#.#...` R b q 7 9 9 9 9 9 9 9 ",
") ) ) ) ) ) ) ) ) @.) ) ) ) ) ) ) ) ) ) ) ) ) ) ) ) ) ) ) ) ) ) ) ) ) ) ) ) ) ) ) ) ) ) ) ) ) ) ) ) ) ) ) ) ) ) ) ) ) ) ) ) ) ) ) ) ) ) ) ) ) ) ) ) ) ) ) ..c T b q 7 9 9 9 9 9 9 9 ",
") ) ) ) ) ) ) ) ) ) ) ) ) ) ) ) ) ) ) ) ) ) ) ) ) ) ) ) ) ) ) ) ) ) ) ) ) ) ) ) ) ) ) ) ) ) ) ) ) ) ) ) ) ) ) ) ) ) ) ) ) ) ) ) ) ) ) ) ) ) ) ) ) ) ) ) ) _ c v b q 7 9 9 9 9 9 9 9 "
};
