/* XPM */
static char *xpm_[] = {
/* columns rows colors chars-per-pixel */
"45 45 149 2 ",
"   c #000000",
".  c #0A0202",
"X  c #140404",
"o  c #1C0504",
"O  c #130808",
"+  c #190A0A",
"@  c #1D1111",
"#  c #230605",
"$  c #2B0706",
"%  c #2C0807",
"&  c #260B0A",
"*  c #2D0F0F",
"=  c #310807",
"-  c #340B0A",
";  c #3C0A09",
":  c #231413",
">  c #2C1414",
",  c #321312",
"<  c #460B0A",
"1  c #4C0D0C",
"2  c #520E0D",
"3  c #580E0D",
"4  c #4F100F",
"5  c #421010",
"6  c #4D1312",
"7  c #481E1D",
"8  c #451D1D",
"9  c #541514",
"0  c #551817",
"q  c #591A1A",
"w  c #63100F",
"e  c #791715",
"r  c #7C201E",
"t  c #552222",
"y  c #5C2423",
"u  c #562827",
"i  c #572D2C",
"p  c #573534",
"a  c #6D3534",
"s  c #7B3130",
"d  c #713837",
"f  c #2B3547",
"g  c #2F3648",
"h  c #4F5156",
"j  c #585959",
"k  c #674F60",
"l  c #8E1715",
"z  c #961816",
"x  c #9A1917",
"c  c #A31B18",
"v  c #AA1C19",
"b  c #B31E1B",
"n  c #BB1E1B",
"m  c #BD201C",
"M  c #812725",
"N  c #9C3B39",
"B  c #C7221F",
"V  c #CD221E",
"C  c #D5231F",
"Z  c #DD221E",
"A  c #EF221E",
"S  c #CE2724",
"D  c #DB2420",
"F  c #DD2925",
"G  c #DD2D31",
"H  c #CE323D",
"J  c #E32521",
"K  c #EF2723",
"L  c #E72824",
"P  c #EE2925",
"I  c #E42A2A",
"U  c #EE2D29",
"Y  c #F02723",
"T  c #F32824",
"R  c #F12E2B",
"E  c #E6312E",
"W  c #EE322E",
"Q  c #F0312E",
"!  c #EF3733",
"~  c #EE3936",
"^  c #EF3C39",
"/  c #E43C3D",
"(  c #F03633",
")  c #F03A36",
"_  c #F03F3B",
"`  c #C53948",
"'  c #F04845",
"]  c #F14C49",
"[  c #F1514E",
"{  c #E65455",
"}  c #F15552",
"|  c #F05A57",
" . c #F25D5A",
".. c #F3615E",
"X. c #E76461",
"o. c #F26562",
"O. c #F16866",
"+. c #F3706E",
"@. c #F37270",
"#. c #3C5EAD",
"$. c #3B60AE",
"%. c #3960B0",
"&. c #5F5492",
"*. c #56579A",
"=. c #54589B",
"-. c #5C5C9C",
";. c #744E83",
":. c #66538D",
">. c #605391",
",. c #605895",
"<. c #605C9A",
"1. c #445EA9",
"2. c #4464AF",
"3. c #4365B0",
"4. c #4867B0",
"5. c #4A69B1",
"6. c #506EB3",
"7. c #5A76B9",
"8. c #6177B5",
"9. c #617CBB",
"0. c #6C85BF",
"q. c #7991C6",
"w. c #F58380",
"e. c #F48886",
"r. c #F9BEBC",
"t. c #F8C0BF",
"y. c #D3BECD",
"u. c #F8C3C2",
"i. c #FBCECD",
"p. c #EED4D8",
"a. c #FBD4D3",
"s. c #FBDDDC",
"d. c #CFD6E7",
"f. c #CFD6E8",
"g. c #CED8EA",
"h. c #D4DBEB",
"j. c #DADFEC",
"k. c #DBE1ED",
"l. c #FCE3E2",
"z. c #F1E8ED",
"x. c #FCECEC",
"c. c #E1E5F0",
"v. c #EDF0F7",
"b. c #FDF5F5",
"n. c #F3F5FA",
"m. c white",
"M. c #FFFEFE",
"N. c #FEFDFD",
"B. c #FEFCFC",
/* pixels */
"                                                                                          ",
"                                O 1 2 2 2 2 2 2 2 2 2 2 4 O                               ",
"                                , J Y K P K K K K K K K F *                               ",
"                                - J Y K K K K K K K K K F &                               ",
"                    O 2 3 3 3 2 e L K K K K K K K K K K J 2 = - - - = .                   ",
"                    % J Y K K K K K K K K K K K K K K K P L A L J L V #                   ",
"                    $ J Y K K K P K K K K K K K K K K K K K K K Y Y Z #                   ",
"              : q q e L Y K K K K K K K P Y Y K K K K K K K K K K Y D w 1 < .             ",
"              y U P T K K K K K K K K K K K K K K K K K K K K K K K K K K D %             ",
"              t U K K K K K A A A A K K K K K K K K K K K K P K K A A A A Z $             ",
"        > d a N P K K K K ! o.O.O.O.O. .U Y K K K K K K K K Y U  .O.O.O.O.X.s y y :       ",
"        0 W R T P K K K A | b.B.B.B.M.a.~ K Y K P K K K Y K K _ s.B.B.M.N.x.| P ( u       ",
"        0 P K K K K Y A A } b.M.M.M.M.s.( A K Y K K K K K Y A ( s.M.M.M.M.b.] A P t       ",
"        0 P K K K K (  ...e.B.M.M.M.M.l.+...| R K K K K U | o.@.x.M.M.M.M.b.w. .O.p       ",
"        9 P K K K A | b.B.B.M.M.M.M.M.M.B.B.s.) K K K A _ s.B.B.M.M.M.M.M.M.M.B.b.j       ",
"        0 K K K K K  .B.M.M.M.M.M.M.M.M.M.M.l._ K K K K _ l.M.M.M.M.M.M.M.M.M.M.M.j       ",
"        0 P K K Y Y  .b.M.M.M.M.n.h.f.f.f.f.y.~ K K K K _ l.M.M.M.M.N.j.f.f.f.f.d.h       ",
"        0 P K K K A  .B.M.M.M.M.k.6.3.2.2.4.-.G K K K A _ l.M.M.M.M.v.7.3.3.2.4.5.g       ",
"        9 K K K K A  .b.M.M.M.M.j.5.#.#.#.$.*.G K K K K ^ l.M.M.M.M.v.7.#.#.#.#.2.f       ",
"  + 7 7 r P K K K K | B.M.M.M.M.j.5.#.$.#.$.*.G K K K K _ l.M.M.M.M.v.7.#.#.#.#.2.k i i @ ",
"  6 U U U K K K K A  .b.M.M.M.M.j.5.#.#.$.$.*.G Y K Y K _ l.M.M.M.M.v.7.#.#.#.#.1.` R E 6 ",
"  9 K K K K K K K A  .B.M.M.M.M.j.4.#.$.#.$.*.G Y K K K _ x.M.M.M.M.v.7.#.#.#.$.1.` Y L 6 ",
"  2 K K K K K Y K A } i.a.s.M.M.c.0.7.8.,.>.;.G K K K K ) r.a.s.B.M.n.q.7.9.<.>.:.H Y L 6 ",
"  1 K K K K K K K Y P ( U o.b.M.M.n.n.p./ I I T K K K Y P Q Q ' l.M.M.n.n.z.{ I I K K L 6 ",
"  2 K P K K Y K Y P Y K A | B.M.M.M.M.s.~ Y Y K K K K K K K K ~ l.M.M.M.M.b.[ A K K K L 6 ",
"  4 K K K K K K K K K K K [ a.s.s.s.s.t.! K K K K K K K K K K ) u.s.s.s.s.a.] K K K K L 6 ",
"  4 Y K K K K K K K K K K P ) ) ) ) ) ( P Y K K K K Y K K K K K ( ) ) ) ) ) P K K K K L 6 ",
"  2 K K K K K K K K K K K K Y K K K K Y K K K K K K K K Y K K K K K Y K Y K Y K K K K K 6 ",
"  2 K K K K K K Y K K K P K K K K K K K P Y K K K K K K K K K K K K K K K K K K K K K L 6 ",
"  2 K K P Y Y K P K K K Y K K Y K Y K K K K K K P K K K K K K K K K P Y K K K K K K K L 6 ",
"  2 P K K K K K K Y K K K K K K K K K K K K K K Y K Y K K K K K K K K K K Y K K K Y K L 6 ",
"  9 K K K K K K K K K K K K K K K K Y P Y K K K K K K K K Y P K K K K K Y P K K K P Y L 6 ",
"  2 K K K K K K Y K K K K K K P K K K K K Y K K K K Y K K K K K K Y K K K K K K K K K L 6 ",
"  2 K P K K K K K K K K K Y K Y K K K K K K K K K K K K K K P K K K K K K K K K P K K L 6 ",
"  2 K K K K K K P K K K K K K K K K K K K K P K K K K P K K K K K K K K K K K K K K K L 6 ",
"  2 K K K K P K Y K K K K K K K K K K Y K K Y K K K K Y K K K K P K K K K K K K K K K L 6 ",
"  2 K P K K K K K K K K K K K Y K K K Y Y Y Y Y Y Y K K K K K K Y K K K Y Y K K K K Y L 6 ",
"  4 K K K K K K D D D K K K Y P K K K L C C D C D D K K K K K K K K K D S D K Y K K K L 6 ",
"  4 Y K K K Y m # o < J Y K K K K K T v # # # o o - C Y K K K K K Y D ; # # n Y K K K L 6 ",
"  2 K K Y Y T b .   % J Y Y K K K Y T c           X V Y K K K K Y Y D #   . b Y Y K Y L 6 ",
"  2 K Y K D D v .   % C Z J K K K K Y c .         o V Y K K K P J D B o   . c J D K Y L 9 ",
"  2 K T v % % #     . # # 2 L Y K K T c           o V Y K K K J 0 $ # .     o $ $ b T L 6 ",
"  2 Y T z                 = A L K K T c .         o V P Y T T I ,                 c T L 6 ",
"  1 D L l                 % C J J J L x           X n D D D Z S >                 l C B < ",
"  X ; ; #                 . ; ; ; ; ; $           . # $ % % % $ .                 X o o . "
};
