/* XPM */
static char *result[] = {
/* columns rows colors chars-per-pixel */
"45 45 212 2 ",
"   c #000000",
".  c #090605",
"X  c #0B0808",
"o  c #160F0F",
"O  c #14110E",
"+  c #1A1817",
"@  c #231A1A",
"#  c #221A27",
"$  c #3B3C3B",
"%  c #302C2E",
"&  c #413D37",
"*  c #39697E",
"=  c #48474D",
"-  c #574A46",
";  c #55524C",
":  c #475051",
">  c #545252",
",  c #605E59",
"<  c #616351",
"1  c #4C5E78",
"2  c #4F5976",
"3  c #595F75",
"4  c #466477",
"5  c #546578",
"6  c #48717D",
"7  c #57777D",
"8  c #68666B",
"9  c #727563",
"0  c #71746B",
"q  c #68697A",
"w  c #637D7E",
"e  c #6C7B7D",
"r  c #7C7C7C",
"t  c #78787A",
"y  c #B2565F",
"u  c #BA4F5B",
"i  c #B25B63",
"p  c #B45F69",
"a  c #A75F66",
"s  c #9E666F",
"d  c #9B6C74",
"f  c #926D76",
"g  c #83747B",
"h  c #89777B",
"j  c #95777B",
"k  c #896F7A",
"l  c #A5636B",
"z  c #AA666D",
"x  c #B66869",
"c  c #AA6B72",
"v  c #A77779",
"b  c #B67878",
"n  c #CB4F5C",
"m  c #C7535F",
"M  c #C65C66",
"N  c #DB5663",
"B  c #CE7070",
"V  c #E7666C",
"C  c #EE6D71",
"Z  c #EF7270",
"A  c #F57071",
"S  c #A2807E",
"D  c #BE8175",
"F  c #EE8E7E",
"G  c #F58175",
"H  c #39768A",
"J  c #447982",
"K  c #517E82",
"L  c #4B7A92",
"P  c #667C82",
"I  c #777F80",
"U  c #867D84",
"Y  c #3A858D",
"T  c #368597",
"R  c #369798",
"E  c #2CABA9",
"W  c #598686",
"Q  c #45928F",
"!  c #4E8D8C",
"~  c #6C8384",
"^  c #658281",
"/  c #728A85",
"(  c #7B8C87",
")  c #788E89",
"_  c #768485",
"`  c #78928B",
"'  c #7F9D91",
"]  c #699C91",
"[  c #53A799",
"{  c #73AA96",
"}  c #799AAD",
"|  c #38C3AC",
" . c #2BC5B6",
".. c #47C8AB",
"X. c #64CDAD",
"o. c #5ABFCA",
"O. c #6DBFCC",
"+. c #3AE8C7",
"@. c #51CED2",
"#. c #58DEDC",
"$. c #46F6CB",
"%. c #52FBD7",
"&. c #59F8C9",
"*. c #71FDD4",
"=. c #7AFDE9",
"-. c #828182",
";. c #8C8C89",
":. c #888687",
">. c #978885",
",. c #83948C",
"<. c #899B8E",
"1. c #85988E",
"2. c #92938D",
"3. c #9A988F",
"4. c #8C9E96",
"5. c #989792",
"6. c #A48985",
"7. c #A7958A",
"8. c #B7978C",
"9. c #B39E93",
"0. c #AB938C",
"q. c #8EA292",
"w. c #95A395",
"e. c #9EA497",
"r. c #9AAA97",
"t. c #9CAC98",
"y. c #9FB09B",
"u. c #8AB69C",
"i. c #ACA597",
"p. c #A9A899",
"a. c #BEAE9C",
"s. c #B8A495",
"d. c #A6B39E",
"f. c #ABB39F",
"g. c #BCB795",
"h. c #8E9BA2",
"j. c #ADB6A1",
"k. c #B9B9A4",
"l. c #B5B2B2",
"z. c #CC9288",
"x. c #FA9380",
"c. c #E19787",
"v. c #C5A996",
"b. c #C4B39F",
"n. c #D8A799",
"m. c #F7AB8B",
"M. c #F8AB9C",
"N. c #E9B799",
"B. c #C6B7A4",
"V. c #D6BDA6",
"C. c #E8B7A6",
"Z. c #F8B5A3",
"A. c #81D7B0",
"S. c #BCC3AA",
"D. c #B4C5AB",
"F. c #AFC3BE",
"G. c #AAE2BC",
"H. c #D2C89D",
"J. c #CCC5AE",
"K. c #C3C6AC",
"L. c #D4C6A9",
"P. c #CBCDB2",
"I. c #C6C7B7",
"U. c #DBC9B7",
"Y. c #D8D4B6",
"T. c #CCD9B6",
"R. c #E2C5A8",
"E. c #FFD4AA",
"W. c #E7CFB5",
"Q. c #F8C8B6",
"!. c #E4DDBD",
"~. c #E5D4B7",
"^. c #F4DBB7",
"/. c #FAE4B9",
"(. c #B0B8C3",
"). c #94D4DE",
"_. c #ADD0CD",
"`. c #B2CFCB",
"'. c #89F7CB",
"]. c #A0F1C6",
"[. c #95FEF8",
"{. c #ADEEEA",
"}. c #BCE3E7",
"|. c #A7FFE8",
" X c #CFCAC5",
".X c #D3CEC8",
"XX c #DCD6CE",
"oX c #D2CFD5",
"OX c #D1D7D1",
"+X c #E7D6C8",
"@X c #F4D8C9",
"#X c #E4DAD4",
"$X c #EBDFD5",
"%X c #F6DAD7",
"&X c #C6F2CE",
"*X c #EEE3C1",
"=X c #FEECCA",
"-X c #F6E6C4",
";X c #ECE2D6",
":X c #F5EAD9",
">X c #FEF4D6",
",X c #FFF6C7",
"<X c #D4E1E6",
"1X c #D3FCFA",
"2X c #E8E5E3",
"3X c #FDEDE1",
"4X c #FFFFEA",
"5X c #E0FFFA",
"6X c #FFF7F3",
"7X c #FCFAF4",
"8X c #FFFFFE",
"9X c #F6FFF3",
/* pixels */
"                                                                                        X ",
"                                                                                          ",
"                                                                                          ",
"                                                                                          ",
"                                                                                          ",
"                                                                                          ",
"                                                                                          ",
"                                                                                          ",
"                                          .                                               ",
"                                      .                                                   ",
"                                .   .   X % & $ $ O X                                     ",
"                              .     = 5..X#X$X$X#XXXXXi.&     .                           ",
"                                ; .X3X-XW.R.L.B.b.a.l..X2X3..   .                         ",
"                              g 7X@X+X;X!.W.W.U.B.k.i.>.;.oXI.+                           ",
"                        .   S 6XC.;X8X8X9X^.~.Y.I.B.f.5.;.q (.#XO                         ",
"                          8 9Xv.R.7X8X7X>X-X+XY.P.S.j.w.2.I 3 (. XO                       ",
"                        @ 2Xn.U.7X-X:X=X-X*X!.Y.P.D.d.q.,._ q 3 <X,   .                   ",
"                    .   2.#XB XX8X^.^.^.^.!.Y.T.D.j.d.q.` ~ 5 1 } OX.                     ",
"                      + #Xz.V.$XV.L.Y.~.Y.Y.P.K.D.d.t.<.) P 3 1 L }.>                     ",
"                      > %Xx W.@Xv.V.J.J.J.K.S.j.f.t.q.` _ P 5 1 H ).t   .                 ",
"                  .   0 Q.x b 8.v.v.B.k.k.g.f.d.r.q.1.` ~ 7 1 4 H O._.                    ",
"                  .   0 C.i b 6.8.s.s.i.p.p.p.w.q.1.` / P 6 4 * T o._..                   ",
"                      9 M.y z v 6.0.7.7.3.5.5.1.` ( / ^ 7 6 6 H R @._..                   ",
"                  .   9 Z.u z z v j S >.>.;.;.,._ / w 7 7 6 H Y E #.`..                   ",
"                  .   < E.n u a c d d j j :.U I r e w 7 W ! Y R  .=.4.  .                 ",
"                      % ^.V M i l l d f k k g t 0 e ^ W W Y R | +.[.:   .                 ",
"                        g.M.N M a l s f f k g t I I ^ W ! [ | +.%.{.#                     ",
"                    .   - /.C N M p z c d j h U -.( ` ] [ ..$.$.[.h.                      ",
"                          g.E.V V M x b b v S >.;.<.' { X.&.%.=.}.%                       ",
"                          o H.E.A Z B B b S >.7.3.w.u.A.'.*.*.1X=                         ",
"                            @ L./.x.G x.c.z.v.v.g.D.`.].'.|.5X8   .                       ",
"                          .   X 7.,XE.m.m.m.N.L.Y.T.&X&X5X<X=                             ",
"                                  - B.=X>X=X=X=X>X4X9X2XU #                               ",
"                                .     $ t 2.2.2.5.-.> #     .                             ",
"                                                                                          ",
"                                        .     .   . .                                     ",
"                                                                                          ",
"                                                                                          ",
"                                                                                          ",
"                                                                                          ",
"                                                                                          ",
"                                                                                          ",
"                                                                                          ",
"                                                                                          ",
"                                                                                          "
};
